<?xml version="1.0" standalone="no"?>
<!DOCTYPE svg PUBLIC "-//W3C//DTD SVG 20010904//EN"
 "http://www.w3.org/TR/2001/REC-SVG-20010904/DTD/svg10.dtd">
<svg version="1.0" xmlns="http://www.w3.org/2000/svg"
 width="555.000000pt" height="439.000000pt" viewBox="0 0 555.000000 439.000000"
 preserveAspectRatio="xMidYMid meet">
<metadata>
Created by potrace 1.16, written by Peter Selinger 2001-2019
</metadata>
<g transform="translate(0.000000,439.000000) scale(0.100000,-0.100000)"
fill="#252563" stroke="none">
<path d="M2990 2584 c121 -151 69 -376 -105 -455 -69 -32 -79 -27 -132 57 -87
136 -156 239 -150 222 3 -10 1 -20 -5 -24 -7 -4 -8 -3 -4 4 4 7 3 12 -3 12 -5
0 -11 -6 -14 -12 -3 -9 -10 -8 -26 6 -16 15 -21 16 -21 5 0 -8 -9 -15 -19 -16
-13 -1 -18 3 -15 11 7 18 -27 30 -38 14 -4 -7 -8 -19 -9 -25 -1 -7 -3 -17 -4
-23 -1 -5 -3 -13 -4 -17 -1 -5 -6 -1 -11 7 -8 13 -10 13 -10 -2 0 -11 -5 -15
-15 -12 -9 4 -32 -5 -53 -19 -20 -15 -53 -32 -72 -38 -19 -7 -38 -17 -42 -23
-5 -7 -8 -3 -8 9 0 18 -1 18 -16 -4 -13 -18 -18 -20 -25 -10 -4 8 -7 -132 -6
-311 l2 -324 135 -98 c74 -53 139 -97 144 -98 5 0 6 138 2 341 -6 275 -4 340
6 337 12 -4 320 -500 338 -544 5 -12 20 -24 33 -28 103 -26 350 -76 355 -72 2
3 -49 92 -113 197 -111 180 -117 193 -100 205 10 8 23 14 27 14 19 0 115 69
160 113 107 108 162 244 162 402 0 84 -4 108 -23 148 -12 26 -27 44 -32 41 -5
-3 -62 -5 -126 -5 -84 1 -119 -2 -125 -11 -6 -10 -8 -9 -8 2 0 8 -10 21 -22
29 -22 13 -22 13 -8 -5z"/>
</g>
</svg>
